<svg xmlns="http://www.w3.org/2000/svg" xmlns:xlink="http://www.w3.org/1999/xlink" width="422.58" height="470.83" viewBox="0 0 422.58 470.83"><defs><style>.cls-1,.cls-13{fill:none;}.cls-2{fill:#e0e2e3;}.cls-3{fill:#ffdaba;}.cls-4{fill:#ffd3ad;}.cls-5{fill:#008cff;}.cls-6{fill:#f8fafb;}.cls-7{fill:#1788cb;}.cls-12,.cls-8{fill:#fff;}.cls-9{fill:url(#Unnamed_Pattern_12);}.cls-10{fill:#d1d1d1;}.cls-11{fill:#66baff;}.cls-12{font-size:10.2px;font-family:Montserrat-SemiBold, Montserrat;font-weight:600;}.cls-13{stroke:#3d7099;stroke-miterlimit:10;stroke-width:2px;}.cls-14,.cls-17,.cls-18,.cls-20,.cls-23{opacity:0.5;}.cls-15{fill:url(#Unnamed_Pattern_7);}.cls-16{fill:url(#Unnamed_Pattern_7-7);}.cls-17{fill:url(#Unnamed_Pattern_7-13);}.cls-18{fill:url(#Unnamed_Pattern_7-17);}.cls-19{fill:#7ac3ff;}.cls-20{fill:url(#Unnamed_Pattern_7-19);}.cls-21,.cls-22{opacity:0.6;}.cls-21{fill:url(#Unnamed_Pattern_7-23);}.cls-22{fill:url(#Unnamed_Pattern_7-25);}.cls-23{fill:url(#Unnamed_Pattern_7-29);}.cls-24{opacity:0.4;}.cls-25{fill:url(#Unnamed_Pattern_3);}.cls-26{fill:url(#Unnamed_Pattern_3-3);}.cls-27{fill:url(#Unnamed_Pattern_3-7);}.cls-28{fill:url(#Unnamed_Pattern_2);}.cls-29{fill:url(#Новый_образец_узора_1);}.cls-30{fill:#3d3d3d;}</style><pattern id="Unnamed_Pattern_12" data-name="Unnamed Pattern 12" width="314.98" height="314.98" patternTransform="translate(24.3 -170.05) scale(0.53 1.06)" patternUnits="userSpaceOnUse" viewBox="0 0 314.98 314.98"><rect class="cls-1" width="314.98" height="314.98"/><rect class="cls-2" width="314.98" height="314.98"/></pattern><pattern id="Unnamed_Pattern_7" data-name="Unnamed Pattern 7" width="314.98" height="314.98" patternTransform="translate(-142.12 -131.21) scale(1.06)" patternUnits="userSpaceOnUse" viewBox="0 0 314.98 314.98"><rect class="cls-1" width="314.98" height="314.98"/><rect class="cls-5" width="314.98" height="314.98"/></pattern><pattern id="Unnamed_Pattern_7-7" data-name="Unnamed Pattern 7" width="314.98" height="314.98" patternTransform="matrix(-0.77, 0, 0, 0.77, 98.14, -8.21)" patternUnits="userSpaceOnUse" viewBox="0 0 314.98 314.98"><rect class="cls-1" width="314.98" height="314.98"/><rect class="cls-5" width="314.98" height="314.98"/></pattern><pattern id="Unnamed_Pattern_7-13" data-name="Unnamed Pattern 7" width="314.98" height="314.98" patternTransform="matrix(-0.75, -0.75, -0.75, 0.75, 361.78, 35.92)" patternUnits="userSpaceOnUse" viewBox="0 0 314.98 314.98"><rect class="cls-1" width="314.98" height="314.98"/><rect class="cls-5" width="314.98" height="314.98"/></pattern><pattern id="Unnamed_Pattern_7-17" data-name="Unnamed Pattern 7" width="314.98" height="314.98" patternTransform="matrix(-0.55, -0.55, -0.55, 0.55, 184.13, -40.94)" patternUnits="userSpaceOnUse" viewBox="0 0 314.98 314.98"><rect class="cls-1" width="314.98" height="314.98"/><rect class="cls-5" width="314.98" height="314.98"/></pattern><pattern id="Unnamed_Pattern_7-19" data-name="Unnamed Pattern 7" width="314.98" height="314.98" patternTransform="translate(87.79 284.62) scale(0.92)" patternUnits="userSpaceOnUse" viewBox="0 0 314.98 314.98"><rect class="cls-1" width="314.98" height="314.98"/><rect class="cls-5" width="314.98" height="314.98"/></pattern><pattern id="Unnamed_Pattern_7-23" data-name="Unnamed Pattern 7" width="314.98" height="314.98" patternTransform="translate(-153.27 -100.17) scale(1.08)" patternUnits="userSpaceOnUse" viewBox="0 0 314.98 314.98"><rect class="cls-1" width="314.98" height="314.98"/><rect class="cls-5" width="314.98" height="314.98"/></pattern><pattern id="Unnamed_Pattern_7-25" data-name="Unnamed Pattern 7" width="314.98" height="314.98" patternTransform="translate(-94.81 420.09) scale(0.76)" patternUnits="userSpaceOnUse" viewBox="0 0 314.98 314.98"><rect class="cls-1" width="314.98" height="314.98"/><rect class="cls-5" width="314.98" height="314.98"/></pattern><pattern id="Unnamed_Pattern_7-29" data-name="Unnamed Pattern 7" width="314.98" height="314.98" patternTransform="matrix(-0.2, -0.2, -0.2, 0.2, 222.4, -18.92)" patternUnits="userSpaceOnUse" viewBox="0 0 314.98 314.98"><rect class="cls-1" width="314.98" height="314.98"/><rect class="cls-5" width="314.98" height="314.98"/></pattern><pattern id="Unnamed_Pattern_3" data-name="Unnamed Pattern 3" width="314.98" height="314.98" patternTransform="matrix(-1, 0, 0, 1, 64.85, 5)" patternUnits="userSpaceOnUse" viewBox="0 0 314.98 314.98"><rect class="cls-1" width="314.98" height="314.98"/><rect class="cls-4" width="314.98" height="314.98"/></pattern><pattern id="Unnamed_Pattern_3-3" data-name="Unnamed Pattern 3" width="314.98" height="314.98" patternTransform="matrix(-1, 0, 0, 1, 65.48, 5)" patternUnits="userSpaceOnUse" viewBox="0 0 314.98 314.98"><rect class="cls-1" width="314.98" height="314.98"/><rect class="cls-4" width="314.98" height="314.98"/></pattern><pattern id="Unnamed_Pattern_3-7" data-name="Unnamed Pattern 3" width="314.98" height="314.98" patternTransform="matrix(-0.9, 0, 0, 0.9, 64.39, 21.86)" patternUnits="userSpaceOnUse" viewBox="0 0 314.98 314.98"><rect class="cls-1" width="314.98" height="314.98"/><rect class="cls-4" width="314.98" height="314.98"/></pattern><pattern id="Unnamed_Pattern_2" data-name="Unnamed Pattern 2" width="314.98" height="314.98" patternTransform="matrix(-0.9, 0, 0, 0.9, 64.39, 21.86)" patternUnits="userSpaceOnUse" viewBox="0 0 314.98 314.98"><rect class="cls-1" width="314.98" height="314.98"/><rect class="cls-3" width="314.98" height="314.98"/></pattern><pattern id="Новый_образец_узора_1" data-name="Новый образец узора 1" width="314.98" height="314.98" patternTransform="matrix(-1.14, 0, 0, 1.14, 717.04, -236.69)" patternUnits="userSpaceOnUse" viewBox="0 0 314.98 314.98"><rect class="cls-1" width="314.98" height="314.98"/><rect class="cls-6" width="314.98" height="314.98"/></pattern></defs><g id="Layer_2" data-name="Layer 2"><g id="Objects"><rect class="cls-7" x="108.03" y="125.53" width="220.93" height="151.76" rx="6.35"/><rect class="cls-8" x="111.21" y="128.71" width="214.58" height="122.47" rx="3.18"/><rect class="cls-9" x="195.64" y="277.29" width="46.53" height="8.47"/><path class="cls-10" d="M251.13,287.75a2,2,0,0,1-2,2H188.66a2,2,0,0,1-2-2h0a2,2,0,0,1,2-2h60.48a2,2,0,0,1,2,2Z"/><rect class="cls-11" x="177.03" y="164.53" width="78.88" height="12.09"/><rect class="cls-11" x="177.03" y="181.74" width="78.88" height="12.09"/><rect class="cls-11" x="177.03" y="205.56" width="78.88" height="27.26"/><text class="cls-12" transform="translate(193.78 223.15)">SUBMIT</text><path class="cls-13" d="M261.73,266.7v20a3,3,0,0,0,3,3h17.32a3,3,0,0,1,3,3v7a3,3,0,0,0,3,3H340a3,3,0,0,1,3,3v15.18a3,3,0,0,1-3,3H313.08"/><g class="cls-14"><path class="cls-15" d="M365.67,157.83a4.42,4.42,0,0,1-4.41,4.41H293.14a4.41,4.41,0,0,1-4.41-4.41h0a4.41,4.41,0,0,1,4.41-4.42h68.12a4.42,4.42,0,0,1,4.41,4.42Z"/><path class="cls-15" d="M422.58,173.8a4.42,4.42,0,0,1-4.41,4.41h-125a4.41,4.41,0,0,1-4.41-4.41h0a4.41,4.41,0,0,1,4.41-4.42h125a4.42,4.42,0,0,1,4.41,4.42Z"/><path class="cls-15" d="M422.58,189.41a4.41,4.41,0,0,1-4.41,4.41h-125a4.4,4.4,0,0,1-4.41-4.41h0a4.41,4.41,0,0,1,4.41-4.41h125a4.42,4.42,0,0,1,4.41,4.41Z"/></g><g class="cls-14"><path class="cls-16" d="M41.5,233.64a3.22,3.22,0,0,0,3.22,3.22H94.39a3.22,3.22,0,0,0,3.22-3.22h0a3.22,3.22,0,0,0-3.22-3.22H44.72a3.22,3.22,0,0,0-3.22,3.22Z"/><path class="cls-16" d="M0,245.28a3.22,3.22,0,0,0,3.22,3.22H94.39a3.22,3.22,0,0,0,3.22-3.22h0a3.22,3.22,0,0,0-3.22-3.21H3.22A3.22,3.22,0,0,0,0,245.28Z"/><path class="cls-16" d="M0,256.67a3.22,3.22,0,0,0,3.22,3.22H94.39a3.22,3.22,0,0,0,3.22-3.22h0a3.22,3.22,0,0,0-3.22-3.21H3.22A3.22,3.22,0,0,0,0,256.67Z"/></g><path class="cls-17" d="M102.67,160.91a1.23,1.23,0,0,0-1-1.19l-3.52-.46a22.37,22.37,0,0,0-4.33-10.56L95.89,146a1.23,1.23,0,0,0-.11-1.58l-1-1-1-1a1.24,1.24,0,0,0-1.59-.11l-2.73,2.11a22.53,22.53,0,0,0-10.63-4.43l-.43-3.35a1.24,1.24,0,0,0-1.2-1.05H74.24a1.23,1.23,0,0,0-1.19,1.05l-.44,3.35A22.56,22.56,0,0,0,62,144.33l-2.67-2.06a1.24,1.24,0,0,0-1.59.1l-1,1-1,1a1.24,1.24,0,0,0-.1,1.59l2.08,2.69a22.5,22.5,0,0,0-4.34,10.66l-3.41.44a1.23,1.23,0,0,0-1,1.19v2.91a1.24,1.24,0,0,0,1,1.2l3.47.45a22.42,22.42,0,0,0,4.44,10.49l-2.18,2.82a1.24,1.24,0,0,0,.11,1.59l1,1,1,1a1.24,1.24,0,0,0,1.59.1l2.86-2.2a22.56,22.56,0,0,0,10.47,4.27l.46,3.61a1.24,1.24,0,0,0,1.2,1h2.91a1.23,1.23,0,0,0,1.19-1l.47-3.64a22.48,22.48,0,0,0,10.41-4.33l2.89,2.23a1.24,1.24,0,0,0,1.59-.1l1-1,1-1a1.24,1.24,0,0,0,.11-1.59l-2.23-2.89a22.53,22.53,0,0,0,4.36-10.44l3.54-.46a1.24,1.24,0,0,0,1.06-1.19v-2.92Zm-27,16.82a15.45,15.45,0,1,1,15.46-15.45A15.47,15.47,0,0,1,75.69,177.73Z"/><path class="cls-17" d="M355.58,31a1.23,1.23,0,0,0-1.05-1.19L351,29.36a22.37,22.37,0,0,0-4.33-10.56l2.12-2.75a1.24,1.24,0,0,0-.11-1.59l-1-1-1-1a1.23,1.23,0,0,0-1.58-.11l-2.73,2.1A22.55,22.55,0,0,0,331.69,10l-.43-3.35a1.24,1.24,0,0,0-1.2-1h-2.91a1.24,1.24,0,0,0-1.2,1L325.52,10a22.45,22.45,0,0,0-10.66,4.44l-2.67-2.06a1.24,1.24,0,0,0-1.59.11l-1,1-1,1a1.23,1.23,0,0,0-.1,1.58l2.08,2.7a22.5,22.5,0,0,0-4.34,10.65l-3.41.44a1.24,1.24,0,0,0-1.06,1.2V34a1.25,1.25,0,0,0,1.05,1.2l3.48.44a22.46,22.46,0,0,0,4.44,10.5L308.5,49a1.25,1.25,0,0,0,.1,1.59l1,1,1,1a1.24,1.24,0,0,0,1.59.1l2.86-2.21a22.42,22.42,0,0,0,10.46,4.27l.47,3.61a1.24,1.24,0,0,0,1.2,1.06h2.91a1.22,1.22,0,0,0,1.19-1l.47-3.63a22.58,22.58,0,0,0,10.41-4.33l2.89,2.23a1.24,1.24,0,0,0,1.59-.11l1-1,1-1a1.24,1.24,0,0,0,.11-1.59L346.63,46A22.41,22.41,0,0,0,351,35.58l3.55-.46a1.24,1.24,0,0,0,1.05-1.2V31Zm-27,16.82a15.46,15.46,0,1,1,15.46-15.46A15.47,15.47,0,0,1,328.6,47.83Z"/><path class="cls-18" d="M129.71,188.36a.9.9,0,0,0-.77-.88l-2.59-.34a16.5,16.5,0,0,0-3.18-7.76l1.55-2a.91.91,0,0,0-.07-1.17l-.76-.76-.75-.75a.91.91,0,0,0-1.17-.08l-2,1.55a16.49,16.49,0,0,0-7.81-3.25l-.32-2.47a.92.92,0,0,0-.88-.77h-2.14a.92.92,0,0,0-.88.77l-.31,2.47a16.4,16.4,0,0,0-7.83,3.26l-2-1.51a.91.91,0,0,0-1.16.07l-.76.76-.76.76a.91.91,0,0,0-.07,1.16l1.53,2a16.39,16.39,0,0,0-3.19,7.83l-2.51.32a.91.91,0,0,0-.77.88v2.14a.91.91,0,0,0,.77.88l2.55.33a16.59,16.59,0,0,0,3.26,7.71l-1.6,2.07a.91.91,0,0,0,.08,1.17l.75.75.76.76a.92.92,0,0,0,1.17.08l2.1-1.62a16.49,16.49,0,0,0,7.69,3.13l.34,2.65a.91.91,0,0,0,.88.78H111a.9.9,0,0,0,.87-.78l.35-2.67a16.42,16.42,0,0,0,7.64-3.18l2.13,1.64a.9.9,0,0,0,1.16-.08l.76-.75.75-.76a.9.9,0,0,0,.08-1.16l-1.64-2.13a16.37,16.37,0,0,0,3.2-7.67l2.61-.34a.89.89,0,0,0,.77-.87v-2.14Zm-19.82,12.35a11.35,11.35,0,1,1,11.35-11.35A11.36,11.36,0,0,1,109.89,200.71Z"/><path class="cls-19" d="M358,96a.7.7,0,0,0-.59-.67l-2-.26a12.47,12.47,0,0,0-2.42-5.9l1.19-1.53a.7.7,0,0,0-.06-.89l-.58-.57-.57-.58a.7.7,0,0,0-.89,0l-1.52,1.17a12.49,12.49,0,0,0-5.94-2.47l-.24-1.87a.69.69,0,0,0-.67-.59h-1.63a.68.68,0,0,0-.66.59l-.25,1.87a12.54,12.54,0,0,0-5.95,2.48l-1.49-1.15a.7.7,0,0,0-.89.06l-.58.57-.57.58a.68.68,0,0,0-.06.88l1.17,1.51a12.52,12.52,0,0,0-2.43,6l-1.91.25a.69.69,0,0,0-.58.67v1.62a.69.69,0,0,0,.58.67l1.94.25a12.52,12.52,0,0,0,2.48,5.86L331.74,106a.7.7,0,0,0,.05.89l.58.57.58.58a.68.68,0,0,0,.88,0l1.6-1.23a12.55,12.55,0,0,0,5.85,2.39l.26,2a.68.68,0,0,0,.66.59h1.63a.7.7,0,0,0,.67-.59l.26-2a12.55,12.55,0,0,0,5.81-2.42l1.62,1.25a.68.68,0,0,0,.88-.06l.58-.57.57-.58a.7.7,0,0,0,.06-.89L353,104.39a12.64,12.64,0,0,0,2.43-5.83l2-.26a.69.69,0,0,0,.59-.67V96ZM343,105.4a8.63,8.63,0,1,1,8.64-8.63A8.64,8.64,0,0,1,343,105.4Z"/><path class="cls-20" d="M115.58,278.38v-3a12.91,12.91,0,0,0-25.81,0v3H86.08v33.18h33.19V278.38Zm-22.14-3a9.24,9.24,0,0,1,18.47,0v3H93.44ZM103.71,296v2.71a1,1,0,0,1-2.07,0V296a3,3,0,1,1,2.07,0Z"/><path class="cls-20" d="M264,32.61v-3a12.9,12.9,0,1,0-25.8,0v3h-3.69V65.79h33.18V32.61Zm-22.13-3a9.23,9.23,0,0,1,18.46,0v3H241.9Zm10.26,20.58v2.72a1,1,0,1,1-2.06,0V50.21a3,3,0,1,1,2.06,0Z"/><path class="cls-21" d="M155.58,65v37h37V65Zm31.29,13.57L173.78,91.68a1.81,1.81,0,0,1-.29.41,1.69,1.69,0,0,1-1.28.5,1.74,1.74,0,0,1-1.29-.5,2.19,2.19,0,0,1-.29-.41l-8.36-8.36a1.73,1.73,0,0,1,2.45-2.45l7.49,7.49,12.21-12.22a1.74,1.74,0,0,1,2.45,0A1.73,1.73,0,0,1,186.87,78.59Z"/><path class="cls-19" d="M387,281.08l-11.41,11.4a1.81,1.81,0,0,1-.29.41,1.75,1.75,0,0,1-1.28.5,1.79,1.79,0,0,1-1.29-.5,2.19,2.19,0,0,1-.29-.41l-8.36-8.36a1.73,1.73,0,0,1,2.45-2.45l7.49,7.49,10.53-10.53a1.74,1.74,0,0,1,2.45,0A1.73,1.73,0,0,1,387,281.08Z"/><path class="cls-19" d="M119.48,97.81a1.8,1.8,0,0,1,0,2.53,1.79,1.79,0,0,1-2.53,0l-5.61-5.61-5.61,5.61a1.79,1.79,0,0,1-2.54-2.53l5.62-5.61-5.62-5.61a1.79,1.79,0,0,1,2.54-2.53l5.61,5.61L117,84.06a1.79,1.79,0,0,1,2.53,2.53l-5.61,5.61Z"/><path class="cls-22" d="M285.89,102.46A5.47,5.47,0,0,0,280.41,97h-.12a13.1,13.1,0,0,0,.12-1.66,12.59,12.59,0,0,0-25-2.14,6.4,6.4,0,0,0-1-.08,7.41,7.41,0,0,0,0,14.81h26.29v0A5.45,5.45,0,0,0,285.89,102.46Z"/><path class="cls-22" d="M202.68,22a5.47,5.47,0,0,0-5.47-5.47h-.13a11.49,11.49,0,0,0,.13-1.66,12.6,12.6,0,0,0-25-2.14,7.93,7.93,0,0,0-1-.08,7.41,7.41,0,0,0,0,14.81h26.3v0A5.45,5.45,0,0,0,202.68,22Z"/><path class="cls-19" d="M48.09,210.85a3.15,3.15,0,0,0-3.16-3.15h-.07a7.48,7.48,0,0,0,.07-1,7.26,7.26,0,0,0-14.42-1.23,5.1,5.1,0,0,0-.57,0,4.27,4.27,0,0,0,0,8.54H45.1v0A3.14,3.14,0,0,0,48.09,210.85Z"/><path class="cls-23" d="M365.67,219a18,18,0,1,0,18,18A18,18,0,0,0,365.67,219Zm-8.23,26.38a8.22,8.22,0,0,1,6.44-8,4.57,4.57,0,1,1,3.58,0,8.23,8.23,0,0,1,6.43,8Z"/><path class="cls-23" d="M124,14.89a18,18,0,1,0,18,18A18,18,0,0,0,124,14.89Zm-8.23,26.37a8.23,8.23,0,0,1,6.43-8,4.58,4.58,0,1,1,3.59,0,8.23,8.23,0,0,1,6.43,8Z"/><path class="cls-19" d="M75.74,319H59.29a8.23,8.23,0,0,1,6.43-8,4.57,4.57,0,1,1,3.59,0A8.23,8.23,0,0,1,75.74,319Z"/><path class="cls-7" d="M114.85,314.17H322a6.82,6.82,0,0,1,6.82,6.82v48a6.82,6.82,0,0,1-6.82,6.82H114.85A6.83,6.83,0,0,1,108,369V321A6.82,6.82,0,0,1,114.85,314.17Z"/><g class="cls-24"><rect class="cls-8" x="115.45" y="318.57" width="12.85" height="7.41"/><rect class="cls-8" x="129.92" y="318.57" width="7.77" height="7.41"/><rect class="cls-8" x="139.3" y="318.57" width="7.77" height="7.41"/><rect class="cls-8" x="148.69" y="318.57" width="7.77" height="7.41"/><rect class="cls-8" x="158.08" y="318.57" width="7.77" height="7.41"/><rect class="cls-8" x="167.46" y="318.57" width="7.77" height="7.41"/><rect class="cls-8" x="176.85" y="318.57" width="7.77" height="7.41"/><rect class="cls-8" x="186.23" y="318.57" width="7.77" height="7.41"/><rect class="cls-8" x="195.62" y="318.57" width="7.77" height="7.41"/><rect class="cls-8" x="205.01" y="318.57" width="7.77" height="7.41"/><rect class="cls-8" x="214.39" y="318.57" width="7.77" height="7.41"/><rect class="cls-8" x="223.78" y="318.57" width="7.77" height="7.41"/><rect class="cls-8" x="233.16" y="318.57" width="7.77" height="7.41"/><rect class="cls-8" x="242.55" y="318.57" width="7.77" height="7.41"/><rect class="cls-8" x="115.45" y="337.47" width="12.85" height="7.41"/><rect class="cls-8" x="129.92" y="337.47" width="7.77" height="7.41"/><rect class="cls-8" x="139.3" y="337.47" width="7.77" height="7.41"/><rect class="cls-8" x="115.45" y="364.55" width="12.85" height="7.41"/><rect class="cls-8" x="129.92" y="364.55" width="10.52" height="7.41"/><rect class="cls-8" x="141.04" y="364.55" width="14.23" height="7.41"/><rect class="cls-8" x="212.24" y="364.55" width="13.15" height="7.41"/><rect class="cls-8" x="227.13" y="364.55" width="9.39" height="7.41"/><rect class="cls-8" x="238.07" y="364.55" width="12.53" height="7.41"/><rect class="cls-8" x="231.01" y="355.58" width="19.54" height="7.41"/><rect class="cls-8" x="156.46" y="364.55" width="53.57" height="7.41"/><rect class="cls-8" x="148.69" y="337.47" width="7.77" height="7.41"/><rect class="cls-8" x="158.08" y="337.47" width="7.77" height="7.41"/><rect class="cls-8" x="167.46" y="337.47" width="7.77" height="7.41"/><rect class="cls-8" x="176.85" y="337.47" width="7.77" height="7.41"/><rect class="cls-8" x="186.23" y="337.47" width="7.77" height="7.41"/><rect class="cls-8" x="195.62" y="337.47" width="7.77" height="7.41"/><rect class="cls-8" x="205.01" y="337.47" width="7.77" height="7.41"/><rect class="cls-8" x="214.39" y="337.47" width="7.77" height="7.41"/><rect class="cls-8" x="223.78" y="337.47" width="7.77" height="7.41"/><rect class="cls-8" x="115.45" y="355.22" width="10.1" height="7.41"/><rect class="cls-8" x="127.17" y="355.22" width="7.77" height="7.41"/><rect class="cls-8" x="136.55" y="355.22" width="7.77" height="7.41"/><rect class="cls-8" x="145.94" y="355.22" width="7.77" height="7.41"/><rect class="cls-8" x="155.33" y="355.22" width="7.77" height="7.41"/><rect class="cls-8" x="164.71" y="355.22" width="7.77" height="7.41"/><rect class="cls-8" x="174.1" y="355.22" width="7.77" height="7.41"/><rect class="cls-8" x="183.48" y="355.22" width="7.77" height="7.41"/><rect class="cls-8" x="192.87" y="355.22" width="7.77" height="7.41"/><rect class="cls-8" x="202.26" y="355.22" width="7.77" height="7.41"/><rect class="cls-8" x="211.64" y="355.22" width="7.77" height="7.41"/><rect class="cls-8" x="221.03" y="355.22" width="7.77" height="7.41"/><rect class="cls-8" x="254.87" y="364.55" width="7.77" height="7.41"/><rect class="cls-8" x="264.28" y="364.55" width="7.77" height="7.41"/><rect class="cls-8" x="264.28" y="355.22" width="7.77" height="7.41"/><rect class="cls-8" x="273.7" y="364.55" width="7.77" height="7.41"/><rect class="cls-8" x="233.16" y="337.47" width="7.77" height="7.41"/><rect class="cls-8" x="242.55" y="337.47" width="7.77" height="7.41"/><rect class="cls-8" x="115.45" y="346.31" width="16.2" height="7.41"/><rect class="cls-8" x="133.27" y="346.31" width="7.77" height="7.41"/><rect class="cls-8" x="142.65" y="346.31" width="7.77" height="7.41"/><rect class="cls-8" x="152.04" y="346.31" width="7.77" height="7.41"/><rect class="cls-8" x="161.42" y="346.31" width="7.77" height="7.41"/><rect class="cls-8" x="170.81" y="346.31" width="7.77" height="7.41"/><rect class="cls-8" x="180.2" y="346.31" width="7.77" height="7.41"/><rect class="cls-8" x="189.58" y="346.31" width="7.77" height="7.41"/><rect class="cls-8" x="198.97" y="346.31" width="7.77" height="7.41"/><rect class="cls-8" x="208.36" y="346.31" width="7.77" height="7.41"/><rect class="cls-8" x="217.74" y="346.31" width="7.77" height="7.41"/><rect class="cls-8" x="227.13" y="346.31" width="7.77" height="7.41"/><rect class="cls-8" x="236.51" y="346.31" width="7.77" height="7.41"/><rect class="cls-8" x="245.9" y="342.49" width="4.42" height="11.24"/><rect class="cls-8" x="237.47" y="327.9" width="12.85" height="7.41"/><rect class="cls-8" x="228.08" y="327.9" width="7.77" height="7.41"/><rect class="cls-8" x="218.7" y="327.9" width="7.77" height="7.41"/><rect class="cls-8" x="209.31" y="327.9" width="7.77" height="7.41"/><rect class="cls-8" x="273.67" y="327.9" width="7.77" height="7.41"/><rect class="cls-8" x="264.28" y="327.9" width="7.77" height="7.41"/><rect class="cls-8" x="254.9" y="327.9" width="7.77" height="7.41"/><rect class="cls-8" x="273.67" y="337.47" width="7.77" height="7.41"/><rect class="cls-8" x="264.28" y="337.47" width="7.77" height="7.41"/><rect class="cls-8" x="254.9" y="337.47" width="7.77" height="7.41"/><rect class="cls-8" x="273.67" y="318.99" width="7.77" height="7.41"/><rect class="cls-8" x="264.28" y="318.99" width="7.77" height="7.41"/><rect class="cls-8" x="254.9" y="318.99" width="7.77" height="7.41"/><rect class="cls-8" x="304.16" y="318.99" width="7.77" height="7.41"/><rect class="cls-8" x="313.84" y="318.99" width="7.77" height="7.41"/><rect class="cls-8" x="294.77" y="318.99" width="7.77" height="7.41"/><rect class="cls-8" x="285.39" y="318.99" width="7.77" height="7.41"/><rect class="cls-8" x="304.16" y="327.9" width="7.77" height="7.41"/><rect class="cls-8" x="313.84" y="327.9" width="7.77" height="7.41"/><rect class="cls-8" x="294.77" y="327.9" width="7.77" height="7.41"/><rect class="cls-8" x="285.39" y="327.9" width="7.77" height="7.41"/><rect class="cls-8" x="304.16" y="336.81" width="7.77" height="7.41"/><rect class="cls-8" x="313.84" y="336.81" width="7.77" height="7.41"/><rect class="cls-8" x="294.77" y="336.81" width="7.77" height="7.41"/><rect class="cls-8" x="285.39" y="336.81" width="7.77" height="7.41"/><rect class="cls-8" x="304.16" y="345.72" width="7.77" height="7.41"/><rect class="cls-8" x="313.84" y="345.72" width="7.77" height="7.41"/><rect class="cls-8" x="294.77" y="345.72" width="7.77" height="7.41"/><rect class="cls-8" x="285.39" y="345.72" width="7.77" height="7.41"/><rect class="cls-8" x="304.16" y="354.62" width="7.77" height="7.41"/><rect class="cls-8" x="304.16" y="364.55" width="7.77" height="7.41"/><rect class="cls-8" x="313.84" y="354.62" width="7.77" height="17.34"/><rect class="cls-8" x="294.77" y="354.62" width="7.77" height="7.41"/><rect class="cls-8" x="285.39" y="354.62" width="7.77" height="7.41"/><rect class="cls-8" x="285.39" y="364.55" width="17.16" height="7.41"/><rect class="cls-8" x="199.92" y="327.9" width="7.77" height="7.41"/><rect class="cls-8" x="190.54" y="327.9" width="7.77" height="7.41"/><rect class="cls-8" x="181.15" y="327.9" width="7.77" height="7.41"/><rect class="cls-8" x="171.77" y="327.9" width="7.77" height="7.41"/><rect class="cls-8" x="162.38" y="327.9" width="7.77" height="7.41"/><rect class="cls-8" x="152.99" y="327.9" width="7.77" height="7.41"/><rect class="cls-8" x="143.61" y="327.9" width="7.77" height="7.41"/><rect class="cls-8" x="134.22" y="327.9" width="7.77" height="7.41"/><rect class="cls-8" x="124.84" y="327.9" width="7.77" height="7.41"/><rect class="cls-8" x="115.45" y="327.9" width="7.77" height="7.41"/></g><path class="cls-19" d="M287,73.63a6.68,6.68,0,0,0-4.47,4.46,6.65,6.65,0,0,0-4.46-4.46,6.68,6.68,0,0,0,4.46-4.47A6.72,6.72,0,0,0,287,73.63Z"/><path class="cls-19" d="M198.89,41.26a6.66,6.66,0,0,0-4.46,4.47A6.7,6.7,0,0,0,190,41.26a6.72,6.72,0,0,0,4.47-4.47A6.68,6.68,0,0,0,198.89,41.26Z"/><path class="cls-19" d="M63.76,99.8a6.7,6.7,0,0,0-4.47,4.47,6.7,6.7,0,0,0-4.47-4.47,6.66,6.66,0,0,0,4.47-4.46A6.66,6.66,0,0,0,63.76,99.8Z"/><path class="cls-19" d="M252.58,4.47a6.66,6.66,0,0,0-4.47,4.46,6.66,6.66,0,0,0-4.47-4.46A6.7,6.7,0,0,0,248.11,0,6.7,6.7,0,0,0,252.58,4.47Z"/><path class="cls-19" d="M206.72,107.93a6.68,6.68,0,0,0-4.46,4.47,6.72,6.72,0,0,0-4.47-4.47,6.68,6.68,0,0,0,4.47-4.46A6.65,6.65,0,0,0,206.72,107.93Z"/><path class="cls-19" d="M72,289.47a6.65,6.65,0,0,0-4.46,4.46,6.68,6.68,0,0,0-4.47-4.46A6.72,6.72,0,0,0,67.52,285,6.68,6.68,0,0,0,72,289.47Z"/><circle class="cls-19" cx="375.56" cy="341.17" r="4.47"/><path class="cls-25" d="M268,412.87a4.76,4.76,0,0,0,4.76,4.76h0a4.76,4.76,0,0,0,4.76-4.76V375.44a4.76,4.76,0,0,0-4.76-4.76h0a4.76,4.76,0,0,0-4.76,4.76Z"/><path class="cls-26" d="M260.21,408.87a4.76,4.76,0,0,0,4.76,4.76h0a4.76,4.76,0,0,0,4.76-4.76V371.44a4.76,4.76,0,0,0-4.76-4.76h0a4.76,4.76,0,0,0-4.76,4.76Z"/><path class="cls-25" d="M251.66,410a4.76,4.76,0,0,0,4.76,4.76h0a4.76,4.76,0,0,0,4.76-4.76V372.53a4.76,4.76,0,0,0-4.76-4.76h0a4.76,4.76,0,0,0-4.76,4.76Z"/><path class="cls-27" d="M242.7,384.52a4.27,4.27,0,0,0,4.26,4.27h0a4.27,4.27,0,0,0,4.27-4.27V351a4.27,4.27,0,0,0-4.27-4.27h0A4.27,4.27,0,0,0,242.7,351Z"/><path class="cls-25" d="M238.22,410.83c-.67-1.06-9.22-17.88-12-24.79-1.2-3-.4-3.75,1-4.61,1.86-1.15,4.08-1.26,6.45,1.47,4.12,4.75,9,10.31,9,10.31V382.72l34.35,2.74s1,26.53.44,28.17-3.13,7.95-3.13,7.95l-24.43-2.41S239.05,412.17,238.22,410.83Z"/><rect class="cls-25" x="247.81" y="414.72" width="27.2" height="56.12"/><path class="cls-28" d="M244,353.21a3,3,0,0,0,3,3h0a3,3,0,0,0,3-3v-2.16a3,3,0,0,0-3-3h0a3,3,0,0,0-3,3Z"/><path class="cls-28" d="M228.5,391.24a3.91,3.91,0,0,0,1.57-4c-.69-2.47-2.14-5.92-3.46-5.39s-1.44,1.57-1.29,2S228.5,391.24,228.5,391.24Z"/><rect class="cls-29" x="244.8" y="421.58" width="32.25" height="6"/><rect class="cls-30" x="242.7" y="427.58" width="36.62" height="43.25"/><polygon class="cls-30" points="236.07 239.64 230.26 233.84 235.04 229.06 226.19 226.69 217.34 224.32 219.71 233.17 222.08 242.02 226.94 237.16 232.75 242.96 236.07 239.64"/></g></g></svg>